<svg width="23" height="22" viewBox="0 0 23 22" fill="none" xmlns="http://www.w3.org/2000/svg">
<path d="M10.7722 0.844108C10.9844 0.19089 11.9086 0.190888 12.1208 0.844106L14.3062 7.57018C14.4012 7.86231 14.6734 8.0601 14.9805 8.0601H22.0528C22.7396 8.0601 23.0252 8.939 22.4695 9.34271L16.748 13.4997C16.4995 13.6802 16.3955 14.0002 16.4904 14.2924L18.6758 21.0184C18.8881 21.6716 18.1404 22.2148 17.5848 21.8111L11.8632 17.6542C11.6147 17.4736 11.2782 17.4736 11.0297 17.6542L5.30821 21.8111C4.75255 22.2148 4.00491 21.6716 4.21715 21.0184L6.40259 14.2924C6.49751 14.0002 6.39352 13.6802 6.14502 13.4997L0.423481 9.34271C-0.132179 8.939 0.153391 8.0601 0.840225 8.0601H7.91244C8.2196 8.0601 8.49183 7.86231 8.58675 7.57018L10.7722 0.844108Z" fill="#FCB036"/>
</svg>
